<svg width="169" height="50" viewBox="0 0 169 50" fill="none" xmlns="http://www.w3.org/2000/svg">
    <path d="M38.7679 4.1312C34.6671 1.42836 29.9138 0 25.0216 0C16.5777 0 8.76464 4.2012 4.12305 11.2375C-3.46767 22.7444 -0.278422 38.2803 11.233 45.8682C15.3332 48.5705 20.086 50 24.9771 50C33.4216 50 41.2352 45.7977 45.8773 38.7598C53.4675 27.2545 50.2782 11.7203 38.7679 4.1312ZM46.5843 21.8816C45.4821 20.0043 44.0076 18.0921 42.2062 16.2276C42.214 16.1548 42.2256 16.0804 42.2334 16.007C42.4002 14.4214 42.3929 12.9531 42.2256 11.6164C44.5662 14.6314 46.0468 18.1821 46.5843 21.8816ZM37.4729 25.55C35.3241 23.4494 32.7563 21.3516 29.8544 19.3771L34.5426 12.2708C36.6431 13.7236 38.5406 15.3059 40.1825 16.9365C39.7584 19.6877 38.8324 22.6172 37.4729 25.55ZM30.7676 35.8402C28.5099 33.7769 25.8208 31.6885 22.9923 29.7784L28.8022 20.9716C31.8708 23.0622 34.4776 25.2439 36.578 27.3628C35.9083 28.6384 35.1607 29.9062 34.3381 31.1535C33.2237 32.843 32.0204 34.4074 30.7676 35.8402ZM15.5739 44.6682C14.9703 44.3788 14.3817 44.0538 13.8031 43.7076L21.9368 31.3779C24.9454 33.4102 27.4649 35.4113 29.472 37.2503C25.0294 41.862 20.0988 44.6999 16.0802 44.6999C15.9063 44.6999 15.7423 44.6788 15.5739 44.6682ZM11.9772 25.7428C14.6118 26.9245 17.4681 28.4873 20.3411 30.3268L12.2018 42.6643C11.6521 42.2659 11.1268 41.8459 10.6249 41.4054C8.85079 37.8864 9.38437 31.9713 11.9772 25.7428ZM14.6073 5.81346C15.8901 5.61179 17.3725 5.6079 19.0255 5.81402C20.7007 6.02347 22.4637 6.44181 24.2662 7.04182C22.0102 8.61408 19.7736 10.6391 17.6904 13.0275C16.2403 12.5042 14.8274 12.0753 13.484 11.7764C11.4086 11.3147 9.57779 11.1625 8.0293 11.3014C9.85959 9.03076 12.0956 7.17183 14.6073 5.81346ZM34.4259 5.33067C35.0306 5.62068 35.6187 5.94569 36.1978 6.29236L34.0007 9.62355C32.2116 8.49352 30.3863 7.50906 28.566 6.68459C30.4396 5.79235 32.2594 5.29901 33.9201 5.29901C34.0935 5.29901 34.2575 5.31956 34.4259 5.33067ZM32.9425 11.2275L28.2553 18.3315C25.3573 16.4837 22.4154 14.9353 19.5841 13.7614C21.7834 11.3125 24.1295 9.30076 26.4483 7.85295C28.611 8.73631 30.7987 9.87689 32.9425 11.2275ZM6.42022 13.5697C7.92536 12.9947 10.2231 13.0075 13.0677 13.6403C14.1332 13.8775 15.2465 14.1998 16.3882 14.5887C15.5822 15.6053 14.8041 16.6731 14.0665 17.7915C12.8721 19.6032 11.8405 21.431 10.974 23.2422C10.3098 22.9772 9.65616 22.7288 9.03143 22.5194C6.72648 21.7472 4.87118 21.4127 3.46664 21.5071C3.9074 18.7643 4.88174 16.0676 6.42022 13.5697ZM15.6617 18.8438C16.4904 17.5876 17.3708 16.4048 18.2807 15.287C21.1704 16.437 24.2068 18.0182 27.2031 19.9271L21.3932 28.7329C18.4363 26.8384 15.4872 25.2239 12.7548 23.9989C13.573 22.2749 14.5412 20.5416 15.6617 18.8438ZM35.5953 10.6763L37.7986 7.33572C38.36 7.74184 38.8952 8.17185 39.4077 8.62075C40.1758 10.1424 40.5254 12.1342 40.4254 14.497C38.973 13.1725 37.3556 11.8886 35.5953 10.6763ZM30.5408 3.91009C29.1624 4.30732 27.7384 4.92289 26.3027 5.74235C23.9166 4.83511 21.5683 4.21732 19.3545 3.93175C21.1793 3.44452 23.0801 3.18396 25.0216 3.18396C26.8991 3.18396 28.7494 3.43952 30.5408 3.91009ZM3.24153 23.4561C4.13361 23.3072 5.74991 23.4355 8.42393 24.3311C8.99308 24.5222 9.58613 24.7456 10.1903 24.985C8.111 29.8973 7.27729 34.5919 7.75306 38.3564C4.45376 34.0919 2.8747 28.759 3.24153 23.4561ZM19.4579 46.0894C23.1563 45.0232 27.1792 42.3487 30.8459 38.5597C33.3032 41.0076 34.7444 43.0571 35.1023 44.3343C32.0281 45.9394 28.5699 46.816 24.9771 46.816C23.1001 46.816 21.2498 46.561 19.4579 46.0894ZM36.747 43.3804C36.0728 41.5643 34.4104 39.4009 32.146 37.1536C33.481 35.6397 34.7577 33.9869 35.9333 32.2063C36.6675 31.0929 37.3417 29.9623 37.9598 28.8251C41.0273 32.2457 42.7042 35.3975 42.8092 37.5886C41.1557 39.9264 39.0925 41.882 36.747 43.3804ZM44.2627 35.2458C43.4551 32.7596 41.5976 29.9084 38.8963 27.0073C40.2575 24.1972 41.2457 21.3705 41.8093 18.6649C44.3661 21.5655 46.0902 24.5261 46.7127 27.1123C46.4459 29.8968 45.6411 32.6613 44.2627 35.2458Z" fill="#4761EC"/>
    <path d="M64.148 35.02C63.812 35.02 63.532 34.9267 63.308 34.74C63.1027 34.5347 63 34.2547 63 33.9V16.12C63 15.7653 63.1027 15.4947 63.308 15.308C63.532 15.1027 63.812 15 64.148 15C64.4653 15 64.7267 15.1027 64.932 15.308C65.156 15.4947 65.268 15.7653 65.268 16.12V33.9C65.268 34.2547 65.156 34.5347 64.932 34.74C64.7267 34.9267 64.4653 35.02 64.148 35.02Z" fill="black"/>
    <path d="M75.0798 20.908C78.4958 20.908 80.2038 22.7 80.2038 26.284V33.9C80.2038 34.236 80.1011 34.5067 79.8958 34.712C79.7091 34.9173 79.4478 35.02 79.1118 35.02C78.7758 35.02 78.5051 34.9173 78.2998 34.712C78.0945 34.5067 77.9918 34.236 77.9918 33.9V32.556C77.6371 33.3587 77.0958 33.984 76.3678 34.432C75.6398 34.8613 74.7998 35.076 73.8478 35.076C72.9705 35.076 72.1585 34.8987 71.4118 34.544C70.6838 34.1893 70.1051 33.6947 69.6758 33.06C69.2465 32.4253 69.0318 31.7253 69.0318 30.96C69.0318 29.9333 69.2931 29.14 69.8158 28.58C70.3385 28.0013 71.1971 27.5907 72.3918 27.348C73.5865 27.0867 75.2478 26.956 77.3758 26.956H77.9918V26.032C77.9918 24.912 77.7585 24.0907 77.2918 23.568C76.8438 23.0453 76.1065 22.784 75.0798 22.784C73.8105 22.784 72.5225 23.1293 71.2158 23.82C70.7118 24.1373 70.3571 24.296 70.1518 24.296C69.9278 24.296 69.7411 24.212 69.5918 24.044C69.4425 23.876 69.3678 23.6613 69.3678 23.4C69.3678 23.1387 69.4425 22.9147 69.5918 22.728C69.7598 22.5227 70.0211 22.3173 70.3758 22.112C71.0291 21.7387 71.7665 21.4493 72.5878 21.244C73.4278 21.02 74.2585 20.908 75.0798 20.908ZM74.1558 33.284C75.2758 33.284 76.1905 32.9107 76.8998 32.164C77.6278 31.3987 77.9918 30.4187 77.9918 29.224V28.412H77.4878C75.8451 28.412 74.5945 28.4867 73.7358 28.636C72.8771 28.7667 72.2611 29 71.8878 29.336C71.5331 29.6533 71.3558 30.1293 71.3558 30.764C71.3558 31.492 71.6171 32.0987 72.1398 32.584C72.6811 33.0507 73.3531 33.284 74.1558 33.284Z" fill="black"/>
    <path d="M91.1035 20.964C91.8875 20.908 92.2795 21.2253 92.2795 21.916C92.2795 22.2147 92.1955 22.4573 92.0275 22.644C91.8595 22.812 91.5701 22.9147 91.1595 22.952L90.3195 23.036C89.0688 23.148 88.1355 23.596 87.5195 24.38C86.9221 25.1453 86.6235 26.0507 86.6235 27.096V33.9C86.6235 34.2733 86.5208 34.5533 86.3155 34.74C86.1101 34.9267 85.8395 35.02 85.5035 35.02C85.1675 35.02 84.8875 34.9267 84.6635 34.74C84.4581 34.5347 84.3555 34.2547 84.3555 33.9V22.084C84.3555 21.7293 84.4675 21.4587 84.6915 21.272C84.9155 21.0667 85.1861 20.964 85.5035 20.964C85.8021 20.964 86.0541 21.0667 86.2595 21.272C86.4648 21.4587 86.5675 21.72 86.5675 22.056V23.624C86.9595 22.8027 87.5101 22.1773 88.2195 21.748C88.9475 21.3187 89.7781 21.0667 90.7115 20.992L91.1035 20.964Z" fill="black"/>
    <path d="M104.902 21.664C105.108 21.216 105.434 20.992 105.882 20.992C106.162 20.992 106.414 21.0853 106.638 21.272C106.862 21.4587 106.974 21.692 106.974 21.972C106.974 22.14 106.937 22.2893 106.862 22.42L101.402 34.18C101.29 34.4227 101.122 34.6187 100.898 34.768C100.674 34.8987 100.432 34.964 100.17 34.964C99.9276 34.964 99.6942 34.8987 99.4702 34.768C99.2462 34.6187 99.0689 34.4227 98.9382 34.18L93.5062 22.42C93.4316 22.2893 93.3942 22.1493 93.3942 22C93.3942 21.72 93.5156 21.4773 93.7582 21.272C94.0196 21.0667 94.2996 20.964 94.5982 20.964C94.7849 20.964 94.9622 21.02 95.1302 21.132C95.3169 21.244 95.4569 21.4027 95.5502 21.608L100.226 32.108L104.902 21.664Z" fill="black"/>
    <path d="M110.96 35.02C110.624 35.02 110.344 34.9267 110.12 34.74C109.915 34.5347 109.812 34.2547 109.812 33.9V22.084C109.812 21.7293 109.915 21.4587 110.12 21.272C110.344 21.0667 110.624 20.964 110.96 20.964C111.296 20.964 111.567 21.0667 111.772 21.272C111.978 21.4587 112.081 21.7293 112.081 22.084V33.9C112.081 34.2733 111.978 34.5533 111.772 34.74C111.567 34.9267 111.296 35.02 110.96 35.02ZM110.96 18.024C110.512 18.024 110.148 17.8933 109.868 17.632C109.588 17.3707 109.449 17.0253 109.449 16.596C109.449 16.1853 109.588 15.8493 109.868 15.588C110.148 15.3267 110.512 15.196 110.96 15.196C111.408 15.196 111.773 15.3267 112.053 15.588C112.333 15.8493 112.472 16.1853 112.472 16.596C112.472 17.0253 112.333 17.3707 112.053 17.632C111.773 17.8933 111.408 18.024 110.96 18.024Z" fill="black"/>
    <path d="M120.912 35.076C120.054 35.076 119.232 34.9733 118.448 34.768C117.683 34.5627 117.002 34.2733 116.404 33.9C116.068 33.676 115.826 33.4707 115.676 33.284C115.546 33.0787 115.48 32.836 115.48 32.556C115.48 32.3133 115.546 32.1173 115.676 31.968C115.826 31.8 116.012 31.716 116.236 31.716C116.46 31.716 116.787 31.856 117.216 32.136C117.776 32.472 118.327 32.7427 118.868 32.948C119.428 33.1347 120.119 33.228 120.94 33.228C121.948 33.228 122.732 33.0507 123.292 32.696C123.852 32.3413 124.132 31.828 124.132 31.156C124.132 30.7453 124.03 30.4187 123.824 30.176C123.619 29.9147 123.264 29.6907 122.76 29.504C122.256 29.2987 121.519 29.0933 120.548 28.888C118.906 28.5333 117.73 28.0573 117.02 27.46C116.311 26.8627 115.956 26.0507 115.956 25.024C115.956 24.2213 116.18 23.512 116.628 22.896C117.076 22.28 117.692 21.7947 118.476 21.44C119.279 21.0853 120.184 20.908 121.192 20.908C121.92 20.908 122.62 21.0107 123.292 21.216C123.983 21.4027 124.59 21.6733 125.112 22.028C125.747 22.476 126.064 22.9427 126.064 23.428C126.064 23.6707 125.99 23.876 125.84 24.044C125.691 24.212 125.514 24.296 125.308 24.296C125.084 24.296 124.748 24.1373 124.3 23.82C123.778 23.484 123.283 23.2227 122.816 23.036C122.35 22.8493 121.771 22.756 121.08 22.756C120.203 22.756 119.494 22.952 118.952 23.344C118.43 23.736 118.168 24.2587 118.168 24.912C118.168 25.3227 118.262 25.6587 118.448 25.92C118.654 26.1627 118.98 26.3867 119.428 26.592C119.895 26.7787 120.558 26.9653 121.416 27.152C122.686 27.432 123.666 27.74 124.356 28.076C125.066 28.412 125.57 28.8227 125.868 29.308C126.167 29.7933 126.316 30.4093 126.316 31.156C126.316 32.332 125.822 33.284 124.832 34.012C123.843 34.7213 122.536 35.076 120.912 35.076Z" fill="black"/>
</svg>