<svg xmlns="http://www.w3.org/2000/svg" viewBox="0 0 100 100">
    <g fill="#4761ec">
        <path xmlns="http://www.w3.org/2000/svg" d="M74.75,12.466C67.372,7.601,58.82,5.03,50.018,5.03c-15.192,0-29.249,7.562-37.6,20.227  C-1.239,45.969,4.499,73.933,25.21,87.591c7.377,4.864,15.928,7.437,24.728,7.437c15.193,0,29.251-7.564,37.603-20.232  C101.197,54.087,95.459,26.126,74.75,12.466z M88.813,44.416c-1.983-3.379-4.636-6.821-7.877-10.177  c0.014-0.131,0.035-0.265,0.049-0.397c0.3-2.854,0.287-5.497-0.014-7.903C85.182,31.366,87.846,37.757,88.813,44.416z M72.42,51.019  c-3.866-3.781-8.486-7.557-13.707-11.111l8.435-12.791c3.779,2.615,7.193,5.463,10.147,8.398  C76.532,40.467,74.866,45.74,72.42,51.019z M60.356,69.541c-4.062-3.714-8.9-7.473-13.989-10.911L56.82,42.778  c5.521,3.763,10.211,7.69,13.99,11.504c-1.205,2.296-2.55,4.578-4.03,6.823C64.775,64.146,62.61,66.962,60.356,69.541z   M33.02,85.431c-1.086-0.521-2.145-1.106-3.186-1.729l14.634-22.193c5.413,3.658,9.946,7.26,13.557,10.57  c-7.993,8.301-16.864,13.409-24.094,13.409C33.618,85.488,33.323,85.45,33.02,85.431z M26.549,51.366  c4.74,2.127,9.879,4.94,15.048,8.251L26.953,81.824c-0.989-0.717-1.934-1.473-2.837-2.266  C20.924,73.224,21.884,62.577,26.549,51.366z M31.281,15.494c2.308-0.363,4.975-0.37,7.949,0.001c3.014,0.377,6.186,1.13,9.429,2.21  c-4.059,2.83-8.083,6.475-11.831,10.774c-2.609-0.942-5.151-1.714-7.568-2.252c-3.734-0.831-7.028-1.105-9.814-0.855  C22.739,21.285,26.762,17.939,31.281,15.494z M66.938,14.625c1.088,0.522,2.146,1.107,3.188,1.731l-3.953,5.996  c-3.219-2.034-6.503-3.806-9.778-5.29c3.371-1.606,6.645-2.494,9.633-2.494C66.34,14.568,66.635,14.605,66.938,14.625z   M64.269,25.239l-8.433,12.787c-5.214-3.326-10.507-6.113-15.601-8.226c3.957-4.408,8.178-8.029,12.35-10.635  C56.476,20.755,60.412,22.808,64.269,25.239z M16.551,29.455c2.708-1.035,6.842-1.012,11.96,0.127  c1.917,0.427,3.92,1.007,5.974,1.707c-1.45,1.83-2.85,3.752-4.177,5.765c-2.149,3.261-4.005,6.551-5.564,9.811  c-1.195-0.477-2.371-0.924-3.495-1.301c-4.147-1.39-7.485-1.992-10.012-1.822C12.03,38.805,13.783,33.951,16.551,29.455z   M33.178,38.948c1.491-2.261,3.075-4.39,4.712-6.402c5.199,2.07,10.662,4.916,16.053,8.352L43.49,56.748  c-5.32-3.41-10.626-6.316-15.542-8.521C29.42,45.124,31.162,42.004,33.178,38.948z M69.042,24.247l3.964-6.013  c1.01,0.731,1.973,1.505,2.895,2.313c1.382,2.739,2.011,6.324,1.831,10.577C75.119,28.74,72.209,26.429,69.042,24.247z   M59.948,12.068c-2.48,0.715-5.042,1.823-7.625,3.298c-4.293-1.633-8.518-2.745-12.501-3.259c3.283-0.877,6.703-1.346,10.196-1.346  C53.396,10.761,56.725,11.221,59.948,12.068z M10.832,47.25c1.605-0.268,4.513-0.037,9.324,1.575  c1.024,0.344,2.091,0.746,3.178,1.177c-3.741,8.842-5.241,17.292-4.385,24.068C13.013,66.394,10.172,56.795,10.832,47.25z   M40.008,87.989c6.654-1.919,13.892-6.733,20.489-13.553c4.421,4.406,7.014,8.095,7.658,10.394  c-5.531,2.889-11.753,4.467-18.217,4.467C46.561,89.297,43.232,88.838,40.008,87.989z M71.114,83.113  c-1.213-3.269-4.204-7.163-8.278-11.208c2.402-2.725,4.699-5.7,6.814-8.905c1.321-2.004,2.534-4.039,3.646-6.086  c5.519,6.157,8.536,11.83,8.725,15.774C79.046,76.896,75.334,80.416,71.114,83.113z M84.636,68.471  c-1.453-4.475-4.795-9.607-9.655-14.829c2.449-5.058,4.227-10.146,5.241-15.016c4.6,5.221,7.702,10.55,8.822,15.205  C88.564,58.843,87.116,63.819,84.636,68.471z"></path>
    </g>
</svg>
